<?xml version="1.0" standalone="no"?>
<!DOCTYPE svg PUBLIC "-//W3C//DTD SVG 20010904//EN"
 "http://www.w3.org/TR/2001/REC-SVG-20010904/DTD/svg10.dtd">
<svg version="1.0" xmlns="http://www.w3.org/2000/svg"
 width="1200.000000pt" height="1200.000000pt" viewBox="0 0 1200.000000 1200.000000"
 preserveAspectRatio="xMidYMid meet">
<metadata>
Created by potrace 1.14, written by Peter Selinger 2001-2017
</metadata>
<g transform="translate(0.000000,1200.000000) scale(0.100000,-0.100000)"
fill="#000000" stroke="none">
<path d="M1767 9432 c-16 -3 -17 -230 -17 -3436 l0 -3433 4253 0 4254 0 0
3434 0 3433 -21 0 c-118 3 -8457 4 -8469 2z m8294 -212 c1 -32 1 -6429 0
-6452 -1 -17 -201 -18 -4061 -18 l-4060 0 -1 23 c-1 31 -1 6405 0 6442 l1 30
4060 0 4060 0 1 -25z"/>
<path d="M5781 7878 c-92 -10 -196 -44 -258 -84 -144 -92 -279 -266 -298 -384
-4 -25 -13 -52 -21 -61 -8 -8 -18 -36 -23 -62 -9 -51 -7 -305 3 -352 16 -70
48 -192 57 -220 58 -162 227 -517 260 -545 10 -8 144 -204 263 -385 244 -368
374 -607 427 -783 18 -63 21 -90 17 -185 -7 -154 -30 -202 -118 -249 -35 -18
-62 -23 -122 -24 -103 -2 -161 18 -218 76 -64 64 -82 127 -86 303 -3 121 -7
144 -26 178 -32 58 -29 57 -353 48 -97 -2 -128 -16 -147 -66 -17 -45 -13 -268
7 -325 2 -7 6 -29 9 -48 14 -89 64 -232 98 -282 10 -14 18 -30 18 -35 0 -16
98 -125 151 -169 71 -58 172 -107 279 -135 168 -44 497 -26 557 30 10 10 24
16 30 14 21 -7 81 28 117 68 38 41 72 105 70 129 -1 8 -2 21 -3 28 0 6 -8 12
-16 12 -8 0 -15 7 -15 15 0 11 9 13 39 9 29 -4 40 -2 44 10 4 9 12 16 20 16
18 0 51 38 65 75 21 56 31 106 48 230 3 28 8 59 10 70 6 28 6 199 0 216 -3 8
-7 25 -10 39 -19 117 -99 327 -196 520 -96 190 -115 225 -122 228 -5 2 -8 10
-8 17 0 7 -4 15 -8 17 -10 4 -516 763 -549 823 -58 106 -82 155 -101 210 -48
138 -61 216 -48 274 30 132 77 212 145 248 37 19 59 23 141 23 92 0 99 -1 155
-35 67 -41 78 -53 107 -115 17 -37 21 -66 23 -170 2 -169 15 -202 78 -202 129
-1 210 6 221 18 11 11 22 10 62 -6 42 -16 54 -16 80 -5 49 21 57 55 51 218 -9
205 -24 281 -74 382 -110 220 -317 362 -555 381 -117 10 -203 10 -277 2z m804
-2788 c-3 -5 -13 -10 -21 -10 -8 0 -12 5 -9 10 3 6 13 10 21 10 8 0 12 -4 9
-10z m-143 -32 c-7 -7 -12 -8 -12 -2 0 14 12 26 19 19 2 -3 -1 -11 -7 -17z"/>
<path d="M4165 7852 c-2 -2 -97 -5 -212 -7 -114 -2 -239 -6 -278 -9 -38 -3
-108 -8 -155 -10 -104 -6 -157 -23 -183 -57 -15 -21 -17 -31 -8 -47 7 -13 9
-41 5 -74 -4 -29 -8 -97 -8 -150 -1 -128 0 -129 135 -133 57 -1 112 2 122 7
11 6 23 6 30 1 7 -5 65 -9 131 -8 72 0 120 -4 121 -10 2 -5 6 -79 9 -163 3
-83 7 -156 10 -160 10 -17 7 -78 -7 -159 -8 -46 -12 -115 -10 -155 3 -40 4
-93 4 -118 0 -25 -2 -184 -5 -354 -4 -303 -4 -310 16 -326 19 -15 20 -20 9
-50 -9 -26 -8 -37 2 -49 16 -19 11 -51 -9 -51 -20 0 -22 -54 -8 -235 5 -55 7
-113 6 -130 -7 -89 -6 -334 1 -360 8 -30 10 -113 3 -150 -2 -11 1 -28 6 -38 6
-12 6 -23 -1 -30 -5 -7 -8 -35 -7 -64 2 -39 9 -59 30 -84 l28 -33 -23 -8 c-13
-5 -27 -14 -31 -21 -5 -7 -6 -104 -2 -217 3 -113 5 -214 5 -224 0 -30 17 -54
50 -71 38 -20 174 -13 221 11 19 10 62 18 103 20 38 1 75 3 80 4 6 1 18 -1 27
-5 14 -5 17 2 23 50 4 30 4 88 0 128 -3 40 -6 86 -6 102 2 54 2 169 1 200 -1
17 1 44 5 61 5 22 0 47 -16 83 -18 43 -20 54 -9 61 9 6 13 24 11 52 -3 48 -3
83 0 213 2 59 -3 104 -12 130 -13 35 -13 46 -2 74 8 18 13 54 13 79 -1 26 -1
89 -1 140 0 84 -1 92 -19 92 -10 0 -22 5 -26 12 -5 7 -2 9 8 6 8 -4 21 -2 28
2 11 7 11 14 0 39 -8 21 -9 35 -2 44 6 7 8 50 6 107 -2 52 -4 102 -4 110 1 8
0 134 0 280 -1 146 -2 409 -3 585 l-1 320 -23 18 c-30 24 -29 35 2 47 28 11
27 7 30 117 1 46 4 85 7 88 3 4 107 7 229 7 251 1 267 5 292 67 11 27 14 78
13 200 l-1 164 -28 21 c-28 20 -38 21 -374 21 -189 0 -346 -1 -348 -3z"/>
<path d="M7126 7806 c-29 -24 -30 -27 -32 -133 -2 -59 -6 -196 -9 -303 -5
-163 -16 -1609 -14 -1850 1 -105 1 -99 -5 -260 -3 -80 -5 -334 -5 -565 0 -231
0 -447 -1 -479 0 -48 3 -63 21 -82 29 -31 59 -36 215 -36 199 0 210 1 234 20
21 17 21 19 5 53 -17 36 -17 36 9 62 14 14 26 30 26 35 0 17 -29 80 -40 87
-20 12 -10 26 18 23 l27 -3 -3 258 c-1 202 -5 266 -17 294 -19 44 -19 67 -1
82 14 11 15 56 18 511 0 14 -1 30 -2 35 -1 6 -2 29 -1 53 l1 43 198 -2 c108
-2 207 1 219 5 12 4 30 8 40 10 286 56 445 202 542 501 26 81 33 108 47 195 2
14 6 34 9 45 17 81 24 486 11 655 -21 265 -93 447 -225 568 -34 31 -141 102
-155 102 -3 0 -25 8 -49 19 -49 21 -105 38 -162 47 -22 3 -59 9 -82 14 -24 4
-159 8 -301 9 -143 1 -315 4 -383 6 -119 4 -125 4 -153 -19z m599 -453 c11 -2
58 -7 105 -10 47 -2 102 -9 123 -14 51 -13 101 -60 131 -123 47 -99 54 -168
51 -496 -2 -226 -5 -294 -18 -330 -8 -25 -18 -61 -21 -81 -7 -41 -56 -99 -104
-123 -92 -47 -220 -60 -380 -40 l-44 5 8 87 c4 48 6 97 5 110 -2 22 -3 65 -2
100 1 9 0 40 0 67 -1 28 2 201 6 385 4 184 8 362 9 395 l1 60 40 12 c22 6 47
9 55 6 8 -3 24 -7 35 -10z m-445 -2948 c0 -14 -6 -25 -13 -25 -21 0 -27 11
-16 31 14 27 29 23 29 -6z"/>
</g>
</svg>
